<?xml version="1.0" encoding="UTF-8" standalone="no"?>
<svg
   xmlns:dc="http://purl.org/dc/elements/1.1/"
   xmlns:cc="http://creativecommons.org/ns#"
   xmlns:rdf="http://www.w3.org/1999/02/22-rdf-syntax-ns#"
   xmlns:svg="http://www.w3.org/2000/svg"
   xmlns="http://www.w3.org/2000/svg"
   xmlns:xlink="http://www.w3.org/1999/xlink"
   xmlns:sodipodi="http://sodipodi.sourceforge.net/DTD/sodipodi-0.dtd"
   xmlns:inkscape="http://www.inkscape.org/namespaces/inkscape"
   version="1.1"
   id="svg4881"
   viewBox="0 0 800.00001 600.00001"
   height="600"
   width="800"
   inkscape:version="0.91 r13725"
   sodipodi:docname="level9.svg">
  <sodipodi:namedview
     pagecolor="#ffffff"
     bordercolor="#666666"
     borderopacity="1"
     objecttolerance="10"
     gridtolerance="10"
     guidetolerance="10"
     inkscape:pageopacity="0"
     inkscape:pageshadow="2"
     inkscape:window-width="3070"
     inkscape:window-height="1752"
     id="namedview13133"
     showgrid="false"
     inkscape:zoom="2.4276042"
     inkscape:cx="400"
     inkscape:cy="201.1371"
     inkscape:window-x="130"
     inkscape:window-y="48"
     inkscape:window-maximized="1"
     inkscape:current-layer="svg4881" />
  <defs
     id="defs4883">
    <marker
       style="overflow:visible"
       id="marker17421"
       refX="0"
       refY="0"
       orient="auto">
      <path
         transform="matrix(-0.4,0,0,-0.4,-4,0)"
         style="fill:#d45500;fill-opacity:1;fill-rule:evenodd;stroke:#d45500;stroke-width:1pt;stroke-opacity:1"
         d="M 0,0 5,-5 -12.5,0 5,5 0,0 Z"
         id="path17423" />
    </marker>
    <marker
       style="overflow:visible"
       id="marker16925"
       refX="0"
       refY="0"
       orient="auto">
      <path
         transform="matrix(-0.4,0,0,-0.4,-4,0)"
         style="fill:#d45500;fill-opacity:1;fill-rule:evenodd;stroke:#d45500;stroke-width:1pt;stroke-opacity:1"
         d="M 0,0 5,-5 -12.5,0 5,5 0,0 Z"
         id="path16927" />
    </marker>
    <marker
       orient="auto"
       refY="0.0"
       refX="0.0"
       id="marker26787"
       style="overflow:visible;">
      <path
         id="path26789"
         d="M 0.0,0.0 L 5.0,-5.0 L -12.5,0.0 L 5.0,5.0 L 0.0,0.0 z "
         style="fill-rule:evenodd;stroke:#d45500;stroke-width:1pt;stroke-opacity:1;fill:#d45500;fill-opacity:1"
         transform="scale(0.4) rotate(180) translate(10,0)" />
    </marker>
    <marker
       style="overflow:visible;"
       id="marker26645"
       refX="0.0"
       refY="0.0"
       orient="auto">
      <path
         transform="scale(0.4) rotate(180) translate(10,0)"
         style="fill-rule:evenodd;stroke:#d45500;stroke-width:1pt;stroke-opacity:1;fill:#d45500;fill-opacity:1"
         d="M 0.0,0.0 L 5.0,-5.0 L -12.5,0.0 L 5.0,5.0 L 0.0,0.0 z "
         id="path26647" />
    </marker>
    <marker
       orient="auto"
       refY="0.0"
       refX="0.0"
       id="marker26171"
       style="overflow:visible;">
      <path
         id="path26173"
         d="M 0.0,0.0 L 5.0,-5.0 L -12.5,0.0 L 5.0,5.0 L 0.0,0.0 z "
         style="fill-rule:evenodd;stroke:#008080;stroke-width:1pt;stroke-opacity:1;fill:#008080;fill-opacity:1"
         transform="scale(0.4) rotate(180) translate(10,0)" />
    </marker>
    <marker
       orient="auto"
       refY="0.0"
       refX="0.0"
       id="marker25131"
       style="overflow:visible;">
      <path
         id="path25133"
         d="M 0.0,0.0 L 5.0,-5.0 L -12.5,0.0 L 5.0,5.0 L 0.0,0.0 z "
         style="fill-rule:evenodd;stroke:#d45500;stroke-width:1pt;stroke-opacity:1;fill:#d45500;fill-opacity:1"
         transform="scale(0.4) rotate(180) translate(10,0)" />
    </marker>
    <marker
       orient="auto"
       refY="0.0"
       refX="0.0"
       id="marker24993"
       style="overflow:visible;">
      <path
         id="path24995"
         d="M 0.0,0.0 L 5.0,-5.0 L -12.5,0.0 L 5.0,5.0 L 0.0,0.0 z "
         style="fill-rule:evenodd;stroke:#008080;stroke-width:1pt;stroke-opacity:1;fill:#008080;fill-opacity:1"
         transform="scale(0.4) rotate(180) translate(10,0)" />
    </marker>
    <marker
       style="overflow:visible;"
       id="marker23887"
       refX="0.0"
       refY="0.0"
       orient="auto">
      <path
         transform="scale(0.4) rotate(180) translate(10,0)"
         style="fill-rule:evenodd;stroke:#d45500;stroke-width:1pt;stroke-opacity:1;fill:#d45500;fill-opacity:1"
         d="M 0.0,0.0 L 5.0,-5.0 L -12.5,0.0 L 5.0,5.0 L 0.0,0.0 z "
         id="path23889" />
    </marker>
    <marker
       orient="auto"
       refY="0.0"
       refX="0.0"
       id="marker23791"
       style="overflow:visible;">
      <path
         id="path23793"
         d="M 0.0,0.0 L 5.0,-5.0 L -12.5,0.0 L 5.0,5.0 L 0.0,0.0 z "
         style="fill-rule:evenodd;stroke:#008080;stroke-width:1pt;stroke-opacity:1;fill:#008080;fill-opacity:1"
         transform="scale(0.4) rotate(180) translate(10,0)" />
    </marker>
    <marker
       orient="auto"
       refY="0.0"
       refX="0.0"
       id="marker23167"
       style="overflow:visible;">
      <path
         id="path23169"
         d="M 0.0,0.0 L 5.0,-5.0 L -12.5,0.0 L 5.0,5.0 L 0.0,0.0 z "
         style="fill-rule:evenodd;stroke:#d45500;stroke-width:1pt;stroke-opacity:1;fill:#d45500;fill-opacity:1"
         transform="scale(0.4) rotate(180) translate(10,0)" />
    </marker>
    <marker
       orient="auto"
       refY="0.0"
       refX="0.0"
       id="marker23041"
       style="overflow:visible;">
      <path
         id="path23043"
         d="M 0.0,0.0 L 5.0,-5.0 L -12.5,0.0 L 5.0,5.0 L 0.0,0.0 z "
         style="fill-rule:evenodd;stroke:#008080;stroke-width:1pt;stroke-opacity:1;fill:#008080;fill-opacity:1"
         transform="scale(0.4) rotate(180) translate(10,0)" />
    </marker>
    <marker
       style="overflow:visible;"
       id="marker22203"
       refX="0.0"
       refY="0.0"
       orient="auto">
      <path
         transform="scale(0.4) rotate(180) translate(10,0)"
         style="fill-rule:evenodd;stroke:#d45500;stroke-width:1pt;stroke-opacity:1;fill:#d45500;fill-opacity:1"
         d="M 0.0,0.0 L 5.0,-5.0 L -12.5,0.0 L 5.0,5.0 L 0.0,0.0 z "
         id="path22205" />
    </marker>
    <marker
       orient="auto"
       refY="0.0"
       refX="0.0"
       id="marker21927"
       style="overflow:visible;">
      <path
         id="path21929"
         d="M 0.0,0.0 L 5.0,-5.0 L -12.5,0.0 L 5.0,5.0 L 0.0,0.0 z "
         style="fill-rule:evenodd;stroke:#d45500;stroke-width:1pt;stroke-opacity:1;fill:#d45500;fill-opacity:1"
         transform="scale(0.4) rotate(180) translate(10,0)" />
    </marker>
    <marker
       style="overflow:visible;"
       id="Arrow1Lend"
       refX="0.0"
       refY="0.0"
       orient="auto">
      <path
         transform="scale(0.8) rotate(180) translate(12.5,0)"
         style="fill-rule:evenodd;stroke:#ff00ff;stroke-width:1pt;stroke-opacity:1;fill:#ff00ff;fill-opacity:1"
         d="M 0.0,0.0 L 5.0,-5.0 L -12.5,0.0 L 5.0,5.0 L 0.0,0.0 z "
         id="path20690" />
    </marker>
    <marker
       style="overflow:visible"
       id="marker23041-5"
       refX="0"
       refY="0"
       orient="auto">
      <path
         transform="matrix(-0.4,0,0,-0.4,-4,0)"
         style="fill:#008080;fill-opacity:1;fill-rule:evenodd;stroke:#008080;stroke-width:1pt;stroke-opacity:1"
         d="M 0,0 5,-5 -12.5,0 5,5 0,0 Z"
         id="path23043-6" />
    </marker>
    <marker
       style="overflow:visible"
       id="marker23791-2"
       refX="0"
       refY="0"
       orient="auto">
      <path
         transform="matrix(-0.4,0,0,-0.4,-4,0)"
         style="fill:#008080;fill-opacity:1;fill-rule:evenodd;stroke:#008080;stroke-width:1pt;stroke-opacity:1"
         d="M 0,0 5,-5 -12.5,0 5,5 0,0 Z"
         id="path23793-91" />
    </marker>
    <marker
       orient="auto"
       refY="0"
       refX="0"
       id="marker23887-2"
       style="overflow:visible">
      <path
         id="path23889-7"
         d="M 0,0 5,-5 -12.5,0 5,5 0,0 Z"
         style="fill:#d45500;fill-opacity:1;fill-rule:evenodd;stroke:#d45500;stroke-width:1pt;stroke-opacity:1"
         transform="matrix(-0.4,0,0,-0.4,-4,0)" />
    </marker>
    <marker
       style="overflow:visible"
       id="marker23791-3"
       refX="0"
       refY="0"
       orient="auto">
      <path
         transform="matrix(-0.4,0,0,-0.4,-4,0)"
         style="fill:#008080;fill-opacity:1;fill-rule:evenodd;stroke:#008080;stroke-width:1pt;stroke-opacity:1"
         d="M 0,0 5,-5 -12.5,0 5,5 0,0 Z"
         id="path23793-9" />
    </marker>
    <marker
       style="overflow:visible"
       id="marker24993-0"
       refX="0"
       refY="0"
       orient="auto">
      <path
         transform="matrix(-0.4,0,0,-0.4,-4,0)"
         style="fill:#008080;fill-opacity:1;fill-rule:evenodd;stroke:#008080;stroke-width:1pt;stroke-opacity:1"
         d="M 0,0 5,-5 -12.5,0 5,5 0,0 Z"
         id="path24995-9" />
    </marker>
    <marker
       style="overflow:visible"
       id="marker25131-3"
       refX="0"
       refY="0"
       orient="auto">
      <path
         transform="matrix(-0.4,0,0,-0.4,-4,0)"
         style="fill:#d45500;fill-opacity:1;fill-rule:evenodd;stroke:#d45500;stroke-width:1pt;stroke-opacity:1"
         d="M 0,0 5,-5 -12.5,0 5,5 0,0 Z"
         id="path25133-6" />
    </marker>
    <marker
       orient="auto"
       refY="0"
       refX="0"
       id="marker26645-0"
       style="overflow:visible">
      <path
         id="path26647-6"
         d="M 0,0 5,-5 -12.5,0 5,5 0,0 Z"
         style="fill:#d45500;fill-opacity:1;fill-rule:evenodd;stroke:#d45500;stroke-width:1pt;stroke-opacity:1"
         transform="matrix(-0.4,0,0,-0.4,-4,0)" />
    </marker>
    <marker
       style="overflow:visible"
       id="marker26787-2"
       refX="0"
       refY="0"
       orient="auto">
      <path
         transform="matrix(-0.4,0,0,-0.4,-4,0)"
         style="fill:#d45500;fill-opacity:1;fill-rule:evenodd;stroke:#d45500;stroke-width:1pt;stroke-opacity:1"
         d="M 0,0 5,-5 -12.5,0 5,5 0,0 Z"
         id="path26789-6" />
    </marker>
  </defs>
  <image
     width="800"
     height="600"
     preserveAspectRatio="none"
     style="image-rendering:optimizeQuality"
     xlink:href="file:///home/mauve/dev/pyweek27/assets/backgrounds/default.jpg"
     id="image10603"
     x="0"
     y="0" />
  <metadata
     id="metadata5451">
    <rdf:RDF>
      <cc:Work
         rdf:about="">
        <dc:title></dc:title>
        <dc:format>image/svg+xml</dc:format>
        <dc:type
           rdf:resource="http://purl.org/dc/dcmitype/StillImage" />
      </cc:Work>
    </rdf:RDF>
  </metadata>
  <rect
     style="color:#000000;clip-rule:nonzero;display:inline;overflow:visible;visibility:visible;opacity:0.5;isolation:auto;mix-blend-mode:normal;color-interpolation:sRGB;color-interpolation-filters:linearRGB;solid-color:#000000;solid-opacity:1;fill:#657182;fill-opacity:1;fill-rule:evenodd;stroke:none;stroke-width:1px;stroke-linecap:butt;stroke-linejoin:miter;stroke-miterlimit:4;stroke-dasharray:none;stroke-dashoffset:0;stroke-opacity:1;color-rendering:auto;image-rendering:auto;shape-rendering:auto;text-rendering:auto;enable-background:accumulate"
     id="rect13807"
     width="836.24976"
     height="216.67453"
     x="0.82385755"
     y="383.32547" />
  <image
     width="31.840796"
     height="23.383085"
     preserveAspectRatio="none"
     style="image-rendering:optimizeQuality"
     xlink:href="file:///home/mauve/dev/pyweek27/assets/sprites/jumper.png"
     id="image12429"
     x="401.11282"
     y="226.85197" />
  <image
     y="89.049126"
     x="404.28882"
     id="image17171"
     xlink:href="file:///home/mauve/dev/pyweek27/source/fly.png"
     style="image-rendering:optimizeQuality"
     preserveAspectRatio="none"
     height="14.5"
     width="19.5" />
  <g
     id="layer3" />
  <image
     y="337.43832"
     x="301.26581"
     id="image14115"
     xlink:href="file:///home/mauve/dev/pyweek27/source/butterfly.png"
     style="image-rendering:optimizeQuality"
     preserveAspectRatio="none"
     height="18.688524"
     width="23.606558" />
  <image
     y="334.14288"
     x="496.52005"
     id="image14117"
     xlink:href="file:///home/mauve/dev/pyweek27/source/butterfly.png"
     style="image-rendering:optimizeQuality"
     preserveAspectRatio="none"
     height="18.688524"
     width="23.606558" />
  <image
     width="23.606558"
     height="18.688524"
     preserveAspectRatio="none"
     style="image-rendering:optimizeQuality"
     xlink:href="file:///home/mauve/dev/pyweek27/source/butterfly.png"
     id="image16908"
     x="398.48099"
     y="334.96677" />
  <image
     sodipodi:absref="/home/mauve/dev/pyweek27/assets/sprites/lilypad.png"
     y="358.94171"
     x="595.42969"
     id="image14108"
     xlink:href="file:///home/mauve/dev/pyweek27/assets/sprites/lilypad.png"
     style="image-rendering:optimizeQuality"
     preserveAspectRatio="none"
     height="115.5"
     width="154.5" />
  <path
     style="fill:#241f1c;fill-rule:evenodd;stroke:#000000;stroke-width:1px;stroke-linecap:butt;stroke-linejoin:miter;stroke-opacity:1"
     d="m 191.13495,603.29543 38.7213,-79.09032 c 0,0 -3.70735,-27.59923 -3.70735,-29.24695 0,-1.64771 18.94872,-52.72688 18.94872,-52.72688 l 16.88908,-32.13044 7.00279,-6.59086 85.68118,11.534 72.91139,-7.00279 75.38297,1.23579 75.38296,10.71015 28.42309,87.3289 -0.82386,47.37181 37.48552,46.95988 z"
     id="path14111"
     inkscape:connector-curvature="0" />
  <path
     style="fill:#241f1c;fill-rule:evenodd;stroke:#000000;stroke-width:1px;stroke-linecap:butt;stroke-linejoin:miter;stroke-opacity:1;color:#000000;clip-rule:nonzero;display:inline;overflow:visible;visibility:visible;opacity:1;isolation:auto;mix-blend-mode:normal;color-interpolation:sRGB;color-interpolation-filters:linearRGB;solid-color:#000000;solid-opacity:1;fill-opacity:1;stroke-miterlimit:4;stroke-dasharray:none;stroke-dashoffset:0;filter-blend-mode:normal;filter-gaussianBlur-deviation:0;color-rendering:auto;image-rendering:auto;shape-rendering:auto;text-rendering:auto;enable-background:accumulate"
     d="m 249.21691,357.37395 c 0,0 -23.06801,-24.30379 -23.06801,-25.95151 0,-1.64771 10.71014,-33.36623 10.71014,-33.36623 l 84.03347,-46.95988 191.95881,0 58.49388,32.13045 27.18731,32.13044 -21.00837,23.47994 -32.54238,2.05964 -38.7213,-37.48552 -93.50783,-7.82664 -119.87128,16.88907 z"
     id="path14113"
     inkscape:connector-curvature="0"
     sodipodi:nodetypes="csccccccccccc" />
</svg>
