<?xml version="1.0" encoding="UTF-8" standalone="no"?>
<svg
   xmlns:dc="http://purl.org/dc/elements/1.1/"
   xmlns:cc="http://creativecommons.org/ns#"
   xmlns:rdf="http://www.w3.org/1999/02/22-rdf-syntax-ns#"
   xmlns:svg="http://www.w3.org/2000/svg"
   xmlns="http://www.w3.org/2000/svg"
   xmlns:xlink="http://www.w3.org/1999/xlink"
   xmlns:sodipodi="http://sodipodi.sourceforge.net/DTD/sodipodi-0.dtd"
   xmlns:inkscape="http://www.inkscape.org/namespaces/inkscape"
   version="1.1"
   id="svg4881"
   viewBox="0 0 800.00001 600.00001"
   height="600"
   width="800"
   inkscape:version="0.91 r13725"
   sodipodi:docname="level8.svg">
  <sodipodi:namedview
     pagecolor="#ffffff"
     bordercolor="#666666"
     borderopacity="1"
     objecttolerance="10"
     gridtolerance="10"
     guidetolerance="10"
     inkscape:pageopacity="0"
     inkscape:pageshadow="2"
     inkscape:window-width="3070"
     inkscape:window-height="1752"
     id="namedview10103"
     showgrid="false"
     inkscape:zoom="1"
     inkscape:cx="394.73861"
     inkscape:cy="288.66161"
     inkscape:window-x="130"
     inkscape:window-y="48"
     inkscape:window-maximized="1"
     inkscape:current-layer="svg4881" />
  <defs
     id="defs4883">
    <marker
       style="overflow:visible"
       id="marker17421"
       refX="0"
       refY="0"
       orient="auto">
      <path
         transform="matrix(-0.4,0,0,-0.4,-4,0)"
         style="fill:#d45500;fill-opacity:1;fill-rule:evenodd;stroke:#d45500;stroke-width:1pt;stroke-opacity:1"
         d="M 0,0 5,-5 -12.5,0 5,5 0,0 Z"
         id="path17423" />
    </marker>
    <marker
       style="overflow:visible"
       id="marker16925"
       refX="0"
       refY="0"
       orient="auto">
      <path
         transform="matrix(-0.4,0,0,-0.4,-4,0)"
         style="fill:#d45500;fill-opacity:1;fill-rule:evenodd;stroke:#d45500;stroke-width:1pt;stroke-opacity:1"
         d="M 0,0 5,-5 -12.5,0 5,5 0,0 Z"
         id="path16927" />
    </marker>
    <marker
       orient="auto"
       refY="0.0"
       refX="0.0"
       id="marker26787"
       style="overflow:visible;">
      <path
         id="path26789"
         d="M 0.0,0.0 L 5.0,-5.0 L -12.5,0.0 L 5.0,5.0 L 0.0,0.0 z "
         style="fill-rule:evenodd;stroke:#d45500;stroke-width:1pt;stroke-opacity:1;fill:#d45500;fill-opacity:1"
         transform="scale(0.4) rotate(180) translate(10,0)" />
    </marker>
    <marker
       style="overflow:visible;"
       id="marker26645"
       refX="0.0"
       refY="0.0"
       orient="auto">
      <path
         transform="scale(0.4) rotate(180) translate(10,0)"
         style="fill-rule:evenodd;stroke:#d45500;stroke-width:1pt;stroke-opacity:1;fill:#d45500;fill-opacity:1"
         d="M 0.0,0.0 L 5.0,-5.0 L -12.5,0.0 L 5.0,5.0 L 0.0,0.0 z "
         id="path26647" />
    </marker>
    <marker
       orient="auto"
       refY="0.0"
       refX="0.0"
       id="marker26171"
       style="overflow:visible;">
      <path
         id="path26173"
         d="M 0.0,0.0 L 5.0,-5.0 L -12.5,0.0 L 5.0,5.0 L 0.0,0.0 z "
         style="fill-rule:evenodd;stroke:#008080;stroke-width:1pt;stroke-opacity:1;fill:#008080;fill-opacity:1"
         transform="scale(0.4) rotate(180) translate(10,0)" />
    </marker>
    <marker
       orient="auto"
       refY="0.0"
       refX="0.0"
       id="marker25131"
       style="overflow:visible;">
      <path
         id="path25133"
         d="M 0.0,0.0 L 5.0,-5.0 L -12.5,0.0 L 5.0,5.0 L 0.0,0.0 z "
         style="fill-rule:evenodd;stroke:#d45500;stroke-width:1pt;stroke-opacity:1;fill:#d45500;fill-opacity:1"
         transform="scale(0.4) rotate(180) translate(10,0)" />
    </marker>
    <marker
       orient="auto"
       refY="0.0"
       refX="0.0"
       id="marker24993"
       style="overflow:visible;">
      <path
         id="path24995"
         d="M 0.0,0.0 L 5.0,-5.0 L -12.5,0.0 L 5.0,5.0 L 0.0,0.0 z "
         style="fill-rule:evenodd;stroke:#008080;stroke-width:1pt;stroke-opacity:1;fill:#008080;fill-opacity:1"
         transform="scale(0.4) rotate(180) translate(10,0)" />
    </marker>
    <marker
       style="overflow:visible;"
       id="marker23887"
       refX="0.0"
       refY="0.0"
       orient="auto">
      <path
         transform="scale(0.4) rotate(180) translate(10,0)"
         style="fill-rule:evenodd;stroke:#d45500;stroke-width:1pt;stroke-opacity:1;fill:#d45500;fill-opacity:1"
         d="M 0.0,0.0 L 5.0,-5.0 L -12.5,0.0 L 5.0,5.0 L 0.0,0.0 z "
         id="path23889" />
    </marker>
    <marker
       orient="auto"
       refY="0.0"
       refX="0.0"
       id="marker23791"
       style="overflow:visible;">
      <path
         id="path23793"
         d="M 0.0,0.0 L 5.0,-5.0 L -12.5,0.0 L 5.0,5.0 L 0.0,0.0 z "
         style="fill-rule:evenodd;stroke:#008080;stroke-width:1pt;stroke-opacity:1;fill:#008080;fill-opacity:1"
         transform="scale(0.4) rotate(180) translate(10,0)" />
    </marker>
    <marker
       orient="auto"
       refY="0.0"
       refX="0.0"
       id="marker23167"
       style="overflow:visible;">
      <path
         id="path23169"
         d="M 0.0,0.0 L 5.0,-5.0 L -12.5,0.0 L 5.0,5.0 L 0.0,0.0 z "
         style="fill-rule:evenodd;stroke:#d45500;stroke-width:1pt;stroke-opacity:1;fill:#d45500;fill-opacity:1"
         transform="scale(0.4) rotate(180) translate(10,0)" />
    </marker>
    <marker
       orient="auto"
       refY="0.0"
       refX="0.0"
       id="marker23041"
       style="overflow:visible;">
      <path
         id="path23043"
         d="M 0.0,0.0 L 5.0,-5.0 L -12.5,0.0 L 5.0,5.0 L 0.0,0.0 z "
         style="fill-rule:evenodd;stroke:#008080;stroke-width:1pt;stroke-opacity:1;fill:#008080;fill-opacity:1"
         transform="scale(0.4) rotate(180) translate(10,0)" />
    </marker>
    <marker
       style="overflow:visible;"
       id="marker22203"
       refX="0.0"
       refY="0.0"
       orient="auto">
      <path
         transform="scale(0.4) rotate(180) translate(10,0)"
         style="fill-rule:evenodd;stroke:#d45500;stroke-width:1pt;stroke-opacity:1;fill:#d45500;fill-opacity:1"
         d="M 0.0,0.0 L 5.0,-5.0 L -12.5,0.0 L 5.0,5.0 L 0.0,0.0 z "
         id="path22205" />
    </marker>
    <marker
       orient="auto"
       refY="0.0"
       refX="0.0"
       id="marker21927"
       style="overflow:visible;">
      <path
         id="path21929"
         d="M 0.0,0.0 L 5.0,-5.0 L -12.5,0.0 L 5.0,5.0 L 0.0,0.0 z "
         style="fill-rule:evenodd;stroke:#d45500;stroke-width:1pt;stroke-opacity:1;fill:#d45500;fill-opacity:1"
         transform="scale(0.4) rotate(180) translate(10,0)" />
    </marker>
    <marker
       style="overflow:visible;"
       id="Arrow1Lend"
       refX="0.0"
       refY="0.0"
       orient="auto">
      <path
         transform="scale(0.8) rotate(180) translate(12.5,0)"
         style="fill-rule:evenodd;stroke:#ff00ff;stroke-width:1pt;stroke-opacity:1;fill:#ff00ff;fill-opacity:1"
         d="M 0.0,0.0 L 5.0,-5.0 L -12.5,0.0 L 5.0,5.0 L 0.0,0.0 z "
         id="path20690" />
    </marker>
    <marker
       style="overflow:visible"
       id="marker23041-5"
       refX="0"
       refY="0"
       orient="auto">
      <path
         transform="matrix(-0.4,0,0,-0.4,-4,0)"
         style="fill:#008080;fill-opacity:1;fill-rule:evenodd;stroke:#008080;stroke-width:1pt;stroke-opacity:1"
         d="M 0,0 5,-5 -12.5,0 5,5 0,0 Z"
         id="path23043-6" />
    </marker>
    <marker
       style="overflow:visible"
       id="marker23791-2"
       refX="0"
       refY="0"
       orient="auto">
      <path
         transform="matrix(-0.4,0,0,-0.4,-4,0)"
         style="fill:#008080;fill-opacity:1;fill-rule:evenodd;stroke:#008080;stroke-width:1pt;stroke-opacity:1"
         d="M 0,0 5,-5 -12.5,0 5,5 0,0 Z"
         id="path23793-91" />
    </marker>
    <marker
       orient="auto"
       refY="0"
       refX="0"
       id="marker23887-2"
       style="overflow:visible">
      <path
         id="path23889-7"
         d="M 0,0 5,-5 -12.5,0 5,5 0,0 Z"
         style="fill:#d45500;fill-opacity:1;fill-rule:evenodd;stroke:#d45500;stroke-width:1pt;stroke-opacity:1"
         transform="matrix(-0.4,0,0,-0.4,-4,0)" />
    </marker>
    <marker
       style="overflow:visible"
       id="marker23791-3"
       refX="0"
       refY="0"
       orient="auto">
      <path
         transform="matrix(-0.4,0,0,-0.4,-4,0)"
         style="fill:#008080;fill-opacity:1;fill-rule:evenodd;stroke:#008080;stroke-width:1pt;stroke-opacity:1"
         d="M 0,0 5,-5 -12.5,0 5,5 0,0 Z"
         id="path23793-9" />
    </marker>
    <marker
       style="overflow:visible"
       id="marker24993-0"
       refX="0"
       refY="0"
       orient="auto">
      <path
         transform="matrix(-0.4,0,0,-0.4,-4,0)"
         style="fill:#008080;fill-opacity:1;fill-rule:evenodd;stroke:#008080;stroke-width:1pt;stroke-opacity:1"
         d="M 0,0 5,-5 -12.5,0 5,5 0,0 Z"
         id="path24995-9" />
    </marker>
    <marker
       style="overflow:visible"
       id="marker25131-3"
       refX="0"
       refY="0"
       orient="auto">
      <path
         transform="matrix(-0.4,0,0,-0.4,-4,0)"
         style="fill:#d45500;fill-opacity:1;fill-rule:evenodd;stroke:#d45500;stroke-width:1pt;stroke-opacity:1"
         d="M 0,0 5,-5 -12.5,0 5,5 0,0 Z"
         id="path25133-6" />
    </marker>
    <marker
       orient="auto"
       refY="0"
       refX="0"
       id="marker26645-0"
       style="overflow:visible">
      <path
         id="path26647-6"
         d="M 0,0 5,-5 -12.5,0 5,5 0,0 Z"
         style="fill:#d45500;fill-opacity:1;fill-rule:evenodd;stroke:#d45500;stroke-width:1pt;stroke-opacity:1"
         transform="matrix(-0.4,0,0,-0.4,-4,0)" />
    </marker>
    <marker
       style="overflow:visible"
       id="marker26787-2"
       refX="0"
       refY="0"
       orient="auto">
      <path
         transform="matrix(-0.4,0,0,-0.4,-4,0)"
         style="fill:#d45500;fill-opacity:1;fill-rule:evenodd;stroke:#d45500;stroke-width:1pt;stroke-opacity:1"
         d="M 0,0 5,-5 -12.5,0 5,5 0,0 Z"
         id="path26789-6" />
    </marker>
  </defs>
  <image
     width="800"
     height="600"
     preserveAspectRatio="none"
     style="image-rendering:optimizeQuality"
     xlink:href="file:///home/mauve/dev/pyweek27/assets/backgrounds/default.jpg"
     id="image10603"
     x="0"
     y="0" />
  <rect
     style="color:#000000;clip-rule:nonzero;display:inline;overflow:visible;visibility:visible;opacity:0.5;isolation:auto;mix-blend-mode:normal;color-interpolation:sRGB;color-interpolation-filters:linearRGB;solid-color:#000000;solid-opacity:1;fill:#657182;fill-opacity:1;fill-rule:evenodd;stroke:none;stroke-width:1px;stroke-linecap:butt;stroke-linejoin:miter;stroke-miterlimit:4;stroke-dasharray:none;stroke-dashoffset:0;stroke-opacity:1;color-rendering:auto;image-rendering:auto;shape-rendering:auto;text-rendering:auto;enable-background:accumulate"
     id="rect10815"
     width="800.41193"
     height="297.41257"
     x="-0.41192877"
     y="302.58743" />
  <metadata
     id="metadata5451">
    <rdf:RDF>
      <cc:Work
         rdf:about="">
        <dc:title></dc:title>
        <dc:format>image/svg+xml</dc:format>
        <dc:type
           rdf:resource="http://purl.org/dc/dcmitype/StillImage" />
      </cc:Work>
    </rdf:RDF>
  </metadata>
  <image
     width="31.840796"
     height="23.383085"
     preserveAspectRatio="none"
     style="image-rendering:optimizeQuality"
     xlink:href="file:///home/mauve/dev/pyweek27/assets/sprites/jumper.png"
     id="image12429"
     x="400.7009"
     y="242.50528" />
  <image
     y="109.64835"
     x="97.260292"
     id="image17171"
     xlink:href="file:///home/mauve/dev/pyweek27/source/fly.png"
     style="image-rendering:optimizeQuality"
     preserveAspectRatio="none"
     height="14.5"
     width="19.5" />
  <g
     id="layer3" />
  <image
     width="23.606558"
     height="18.688524"
     preserveAspectRatio="none"
     style="image-rendering:optimizeQuality"
     xlink:href="file:///home/mauve/dev/pyweek27/source/butterfly.png"
     id="image16908"
     x="654.7569"
     y="100.17572" />
  <image
     sodipodi:absref="/home/mauve/dev/pyweek27/assets/sprites/lilypad.png"
     y="278.25"
     x="339.75"
     id="image11100"
     xlink:href="file:///home/mauve/dev/pyweek27/assets/sprites/lilypad.png"
     style="image-rendering:optimizeQuality"
     preserveAspectRatio="none"
     height="115.5"
     width="154.5" />
  <image
     sodipodi:absref="/home/mauve/dev/pyweek27/assets/sprites/goldfish.png"
     y="516.75"
     x="392.25"
     id="image11164"
     xlink:href="file:///home/mauve/dev/pyweek27/assets/sprites/goldfish.png"
     style="image-rendering:optimizeQuality"
     preserveAspectRatio="none"
     height="20.5"
     width="31.5" />
  <image
     width="30"
     height="18"
     preserveAspectRatio="none"
     style="image-rendering:optimizeQuality"
     xlink:href="file:///home/mauve/dev/pyweek27/assets/sprites/fish.png"
     id="image11245"
     x="646"
     y="447"
     sodipodi:absref="/home/mauve/dev/pyweek27/assets/sprites/fish.png" />
  <image
     sodipodi:absref="/home/mauve/dev/pyweek27/assets/sprites/fish.png"
     y="446"
     x="74"
     id="image11242"
     xlink:href="file:///home/mauve/dev/pyweek27/assets/sprites/fish.png"
     style="image-rendering:optimizeQuality"
     preserveAspectRatio="none"
     height="18"
     width="30" />
</svg>
